<svg width="100%" height="100%" viewBox="0 0 167 76" fill="none" xmlns="http://www.w3.org/2000/svg">
<path d="M36.248 21V19.68C36.696 19.664 37.04 19.584 37.28 19.44C37.52 19.296 37.688 19.056 37.784 18.72C37.88 18.368 37.928 17.88 37.928 17.256V7.776C37.928 7.344 37.936 6.944 37.952 6.576C37.984 6.208 38.008 5.92 38.024 5.712C37.752 5.728 37.44 5.744 37.088 5.76C36.736 5.76 36.456 5.768 36.248 5.784V4.2C37.272 4.184 38.304 4.176 39.344 4.176C40.384 4.176 41.432 4.168 42.488 4.152C44.376 4.136 45.872 4.48 46.976 5.184C48.08 5.888 48.6 6.968 48.536 8.424C48.52 8.904 48.376 9.376 48.104 9.84C47.832 10.304 47.432 10.72 46.904 11.088C46.376 11.456 45.712 11.736 44.912 11.928V11.952C46.56 12.128 47.784 12.624 48.584 13.44C49.384 14.24 49.784 15.176 49.784 16.248C49.784 17.272 49.536 18.136 49.04 18.84C48.544 19.544 47.856 20.08 46.976 20.448C46.112 20.816 45.128 21 44.024 21H36.248ZM40.856 19.536C41.128 19.552 41.408 19.56 41.696 19.56C42 19.56 42.288 19.56 42.56 19.56C42.832 19.544 43.064 19.536 43.256 19.536C44.312 19.504 45.112 19.2 45.656 18.624C46.216 18.032 46.496 17.24 46.496 16.248C46.496 15.432 46.328 14.792 45.992 14.328C45.672 13.864 45.248 13.536 44.72 13.344C44.208 13.152 43.656 13.056 43.064 13.056C42.632 13.056 42.256 13.056 41.936 13.056C41.616 13.056 41.288 13.072 40.952 13.104V17.52C40.952 17.952 40.944 18.344 40.928 18.696C40.912 19.048 40.888 19.328 40.856 19.536ZM40.952 11.64L42.368 11.616C43.12 11.6 43.712 11.44 44.144 11.136C44.576 10.816 44.888 10.408 45.08 9.912C45.272 9.4 45.368 8.848 45.368 8.256C45.352 7.552 45.192 7.008 44.888 6.624C44.6 6.224 44.24 5.944 43.808 5.784C43.376 5.624 42.928 5.552 42.464 5.568C42.128 5.568 41.848 5.616 41.624 5.712C41.4 5.808 41.232 6.008 41.12 6.312C41.008 6.616 40.952 7.072 40.952 7.68V11.64ZM56.375 21.384C55.447 21.384 54.687 21.208 54.095 20.856C53.519 20.504 53.095 19.944 52.823 19.176C52.551 18.392 52.415 17.368 52.415 16.104V12.84C52.415 12.568 52.423 12.264 52.439 11.928C52.455 11.592 52.471 11.256 52.487 10.92C52.231 10.936 51.943 10.952 51.623 10.968C51.303 10.968 51.039 10.976 50.831 10.992V9.456H51.239C52.119 9.456 52.799 9.384 53.279 9.24C53.775 9.08 54.111 8.92 54.287 8.76H55.391V16.104C55.391 17.256 55.543 18.112 55.847 18.672C56.167 19.232 56.679 19.512 57.383 19.512C57.863 19.496 58.335 19.352 58.799 19.08C59.279 18.808 59.663 18.488 59.951 18.12V12.936C59.951 12.616 59.959 12.288 59.975 11.952C59.991 11.6 60.015 11.256 60.047 10.92C59.791 10.936 59.495 10.952 59.159 10.968C58.839 10.968 58.575 10.976 58.367 10.992V9.456H58.991C59.727 9.456 60.335 9.376 60.815 9.216C61.311 9.056 61.639 8.904 61.799 8.76H62.903V17.376C62.903 17.6 62.895 17.928 62.879 18.36C62.863 18.792 62.839 19.184 62.807 19.536C63.079 19.504 63.367 19.488 63.671 19.488C63.975 19.472 64.223 19.456 64.415 19.44V21H60.239C60.207 20.776 60.175 20.552 60.143 20.328C60.127 20.104 60.111 19.888 60.095 19.68C59.599 20.128 59.039 20.528 58.415 20.88C57.807 21.216 57.127 21.384 56.375 21.384ZM66.0549 19.728C66.5189 19.728 66.8469 19.632 67.0389 19.44C67.2309 19.232 67.3509 18.944 67.3989 18.576C67.4469 18.208 67.4709 17.792 67.4709 17.328V12.84C67.4709 12.568 67.4789 12.272 67.4949 11.952C67.5109 11.616 67.5349 11.272 67.5669 10.92C67.2949 10.936 66.9989 10.952 66.6789 10.968C66.3589 10.984 66.0949 11 65.8869 11.016V9.456C66.6069 9.456 67.1989 9.424 67.6629 9.36C68.1429 9.28 68.5109 9.184 68.7669 9.072C69.0389 8.96 69.2309 8.856 69.3429 8.76H70.4229V17.568C70.4229 17.824 70.4149 18.136 70.3989 18.504C70.3989 18.856 70.3749 19.2 70.3269 19.536C70.5829 19.504 70.8549 19.488 71.1429 19.488C71.4469 19.472 71.6949 19.464 71.8869 19.464V21H66.0549V19.728ZM68.8149 6.696C68.3509 6.696 67.9589 6.528 67.6389 6.192C67.3189 5.84 67.1589 5.416 67.1589 4.92C67.1589 4.424 67.3189 4 67.6389 3.648C67.9749 3.296 68.3669 3.12 68.8149 3.12C69.2789 3.12 69.6629 3.296 69.9669 3.648C70.2869 4 70.4469 4.424 70.4469 4.92C70.4469 5.416 70.2949 5.84 69.9909 6.192C69.6869 6.528 69.2949 6.696 68.8149 6.696ZM73.1954 19.728C73.6594 19.728 73.9874 19.632 74.1794 19.44C74.3874 19.232 74.5074 18.944 74.5394 18.576C74.5874 18.208 74.6114 17.792 74.6114 17.328V6.96C74.6114 6.688 74.6194 6.392 74.6354 6.072C74.6514 5.736 74.6754 5.392 74.7074 5.04C74.4354 5.056 74.1394 5.072 73.8194 5.088C73.4994 5.104 73.2274 5.12 73.0034 5.136V3.576C73.7394 3.576 74.3394 3.544 74.8034 3.48C75.2834 3.4 75.6514 3.304 75.9074 3.192C76.1794 3.08 76.3714 2.976 76.4834 2.88H77.5634L77.5874 17.568C77.5874 17.824 77.5794 18.136 77.5634 18.504C77.5474 18.856 77.5154 19.2 77.4674 19.536C77.7394 19.504 78.0194 19.488 78.3074 19.488C78.5954 19.472 78.8354 19.464 79.0274 19.464V21H73.1954V19.728ZM85.5033 21.384C84.5433 21.384 83.6873 21.136 82.9353 20.64C82.1833 20.144 81.5913 19.44 81.1593 18.528C80.7433 17.616 80.5353 16.544 80.5353 15.312C80.5353 14.016 80.7913 12.864 81.3033 11.856C81.8153 10.848 82.5193 10.056 83.4153 9.48C84.3273 8.904 85.3753 8.616 86.5593 8.616C87.0233 8.616 87.4553 8.672 87.8553 8.784C88.2713 8.88 88.6313 8.992 88.9353 9.12V6.984C88.9353 6.744 88.9353 6.448 88.9353 6.096C88.9513 5.744 88.9753 5.392 89.0073 5.04C88.7513 5.056 88.4553 5.072 88.1193 5.088C87.7993 5.104 87.5273 5.12 87.3033 5.136V3.576C88.0393 3.576 88.6393 3.544 89.1033 3.48C89.5673 3.4 89.9273 3.304 90.1833 3.192C90.4553 3.08 90.6473 2.976 90.7593 2.88H91.8633V17.568C91.8633 17.808 91.8553 18.112 91.8393 18.48C91.8233 18.832 91.7993 19.184 91.7673 19.536C92.0393 19.504 92.3193 19.488 92.6073 19.488C92.9113 19.472 93.1673 19.456 93.3753 19.44V21H89.1993C89.1673 20.808 89.1353 20.616 89.1033 20.424C89.0873 20.216 89.0633 20.024 89.0313 19.848C88.5353 20.376 87.9913 20.76 87.3993 21C86.8073 21.256 86.1753 21.384 85.5033 21.384ZM86.6313 19.536C87.0793 19.536 87.5113 19.416 87.9273 19.176C88.3433 18.92 88.6793 18.608 88.9353 18.24C88.9193 18.016 88.9113 17.792 88.9113 17.568C88.9113 17.328 88.9113 17.088 88.9113 16.848L88.9353 10.704C88.6953 10.512 88.3913 10.368 88.0233 10.272C87.6553 10.16 87.2793 10.104 86.8953 10.104C86.1433 10.12 85.5273 10.36 85.0473 10.824C84.5833 11.272 84.2393 11.864 84.0153 12.6C83.8073 13.336 83.7113 14.136 83.7273 15C83.7273 15.784 83.8313 16.52 84.0393 17.208C84.2473 17.896 84.5593 18.456 84.9753 18.888C85.4073 19.32 85.9593 19.536 86.6313 19.536ZM95.0236 19.728C95.4876 19.728 95.8156 19.632 96.0076 19.44C96.1996 19.232 96.3196 18.944 96.3676 18.576C96.4156 18.208 96.4396 17.792 96.4396 17.328V12.84C96.4396 12.568 96.4476 12.272 96.4636 11.952C96.4796 11.616 96.5036 11.272 96.5356 10.92C96.2636 10.936 95.9676 10.952 95.6476 10.968C95.3276 10.984 95.0636 11 94.8556 11.016V9.456C95.5756 9.456 96.1676 9.424 96.6316 9.36C97.1116 9.28 97.4796 9.184 97.7356 9.072C98.0076 8.96 98.1996 8.856 98.3116 8.76H99.3916V17.568C99.3916 17.824 99.3836 18.136 99.3676 18.504C99.3676 18.856 99.3436 19.2 99.2956 19.536C99.5516 19.504 99.8236 19.488 100.112 19.488C100.416 19.472 100.664 19.464 100.856 19.464V21H95.0236V19.728ZM97.7836 6.696C97.3196 6.696 96.9276 6.528 96.6076 6.192C96.2876 5.84 96.1276 5.416 96.1276 4.92C96.1276 4.424 96.2876 4 96.6076 3.648C96.9436 3.296 97.3356 3.12 97.7836 3.12C98.2476 3.12 98.6316 3.296 98.9356 3.648C99.2556 4 99.4156 4.424 99.4156 4.92C99.4156 5.416 99.2636 5.84 98.9596 6.192C98.6556 6.528 98.2636 6.696 97.7836 6.696ZM102.5 21V19.728C102.964 19.728 103.292 19.632 103.484 19.44C103.676 19.232 103.796 18.944 103.844 18.576C103.892 18.208 103.916 17.792 103.916 17.328V12.816C103.916 12.528 103.924 12.224 103.94 11.904C103.956 11.584 103.98 11.256 104.012 10.92C103.756 10.936 103.46 10.952 103.124 10.968C102.804 10.984 102.54 11 102.332 11.016V9.456C103.052 9.456 103.644 9.424 104.108 9.36C104.572 9.28 104.932 9.184 105.188 9.072C105.444 8.96 105.628 8.856 105.74 8.76H106.748C106.78 8.936 106.796 9.08 106.796 9.192C106.796 9.304 106.804 9.424 106.82 9.552C106.836 9.664 106.86 9.832 106.892 10.056C107.212 9.784 107.58 9.544 107.996 9.336C108.428 9.112 108.86 8.936 109.292 8.808C109.724 8.68 110.124 8.616 110.492 8.616C111.932 8.616 112.964 9.04 113.588 9.888C114.212 10.736 114.524 12.088 114.524 13.944V17.568C114.524 17.824 114.516 18.136 114.5 18.504C114.5 18.856 114.476 19.2 114.428 19.536C114.7 19.504 114.98 19.488 115.268 19.488C115.556 19.472 115.796 19.464 115.988 19.464V21H110.156V19.728C110.62 19.728 110.948 19.632 111.14 19.44C111.348 19.232 111.476 18.944 111.524 18.576C111.572 18.208 111.596 17.792 111.596 17.328L111.572 13.92C111.572 12.768 111.396 11.912 111.044 11.352C110.708 10.776 110.148 10.488 109.364 10.488C108.9 10.504 108.444 10.616 107.996 10.824C107.548 11.032 107.172 11.296 106.868 11.616C106.884 11.808 106.892 12.008 106.892 12.216C106.892 12.424 106.892 12.632 106.892 12.84L106.868 17.568C106.868 17.824 106.86 18.136 106.844 18.504C106.844 18.856 106.82 19.2 106.772 19.536C107.028 19.504 107.3 19.488 107.588 19.488C107.892 19.472 108.14 19.464 108.332 19.464V21H102.5ZM122.947 27.504C121.539 27.504 120.419 27.352 119.587 27.048C118.771 26.744 118.179 26.344 117.811 25.848C117.459 25.368 117.283 24.864 117.283 24.336C117.283 23.936 117.371 23.56 117.547 23.208C117.723 22.872 117.979 22.552 118.315 22.248C118.651 21.944 119.059 21.704 119.539 21.528C118.931 21.352 118.491 21.088 118.219 20.736C117.947 20.368 117.811 19.952 117.811 19.488C117.811 19.024 117.995 18.536 118.363 18.024C118.747 17.512 119.347 17.152 120.163 16.944C119.475 16.64 118.907 16.192 118.459 15.6C118.027 15.008 117.803 14.304 117.787 13.488C117.771 12.528 118.011 11.68 118.507 10.944C119.019 10.208 119.683 9.64 120.499 9.24C121.315 8.824 122.163 8.616 123.043 8.616C123.491 8.616 123.987 8.68 124.531 8.808C125.075 8.936 125.555 9.136 125.971 9.408C126.131 8.928 126.355 8.488 126.643 8.088C126.931 7.672 127.267 7.336 127.651 7.08C128.051 6.824 128.491 6.696 128.971 6.696C129.467 6.696 129.843 6.824 130.099 7.08C130.355 7.336 130.483 7.68 130.483 8.112C130.483 8.288 130.443 8.48 130.363 8.688C130.283 8.896 130.147 9.072 129.955 9.216C129.763 9.36 129.499 9.432 129.163 9.432C128.907 9.432 128.667 9.344 128.443 9.168C128.235 8.992 128.107 8.776 128.059 8.52C127.787 8.584 127.539 8.784 127.315 9.12C127.107 9.456 126.979 9.776 126.931 10.08C127.363 10.464 127.699 10.92 127.939 11.448C128.179 11.96 128.299 12.512 128.299 13.104C128.299 14.016 128.043 14.832 127.531 15.552C127.035 16.256 126.379 16.808 125.563 17.208C124.763 17.608 123.899 17.808 122.971 17.808C122.731 17.808 122.491 17.8 122.251 17.784C122.011 17.752 121.755 17.736 121.483 17.736C121.051 17.736 120.691 17.824 120.403 18C120.131 18.176 120.011 18.408 120.043 18.696C120.091 19.032 120.379 19.256 120.907 19.368C121.435 19.464 122.251 19.544 123.355 19.608C124.587 19.672 125.659 19.824 126.571 20.064C127.483 20.304 128.187 20.68 128.682 21.192C129.179 21.72 129.427 22.44 129.427 23.352C129.427 24.024 129.235 24.616 128.851 25.128C128.467 25.64 127.955 26.072 127.315 26.424C126.691 26.776 125.995 27.04 125.227 27.216C124.475 27.408 123.715 27.504 122.947 27.504ZM123.403 26.088C124.619 26.088 125.547 25.864 126.187 25.416C126.827 24.968 127.147 24.48 127.147 23.952C127.147 23.536 126.995 23.2 126.691 22.944C126.387 22.704 125.955 22.52 125.395 22.392C124.835 22.264 124.139 22.184 123.307 22.152C122.939 22.136 122.531 22.112 122.083 22.08C121.635 22.064 121.227 22.024 120.859 21.96C120.555 22.184 120.315 22.464 120.139 22.8C119.979 23.136 119.899 23.472 119.899 23.808C119.867 24.496 120.171 25.048 120.811 25.464C121.451 25.88 122.315 26.088 123.403 26.088ZM123.067 16.464C123.547 16.464 123.947 16.328 124.267 16.056C124.603 15.768 124.851 15.408 125.011 14.976C125.187 14.528 125.275 14.056 125.275 13.56C125.275 12.952 125.195 12.376 125.035 11.832C124.875 11.272 124.627 10.824 124.291 10.488C123.955 10.136 123.531 9.96 123.019 9.96C122.299 9.96 121.739 10.264 121.339 10.872C120.955 11.464 120.763 12.168 120.763 12.984C120.763 13.608 120.851 14.192 121.027 14.736C121.219 15.264 121.483 15.688 121.819 16.008C122.171 16.312 122.587 16.464 123.067 16.464ZM36.248 45V43.68C36.696 43.664 37.04 43.592 37.28 43.464C37.52 43.32 37.688 43.08 37.784 42.744C37.88 42.392 37.928 41.912 37.928 41.304V31.728C37.928 31.328 37.936 30.944 37.952 30.576C37.984 30.208 38.008 29.92 38.024 29.712C37.752 29.728 37.44 29.744 37.088 29.76C36.736 29.76 36.456 29.768 36.248 29.784V28.2H42.632V29.52C42.2 29.536 41.856 29.616 41.6 29.76C41.36 29.888 41.192 30.12 41.096 30.456C41 30.792 40.952 31.272 40.952 31.896V35.712H48.2V31.728C48.2 31.328 48.208 30.944 48.224 30.576C48.24 30.208 48.264 29.92 48.296 29.712C48.024 29.728 47.712 29.744 47.36 29.76C47.008 29.76 46.728 29.768 46.52 29.784V28.2H52.904V29.52C52.472 29.536 52.128 29.616 51.872 29.76C51.632 29.888 51.464 30.12 51.368 30.456C51.272 30.792 51.224 31.272 51.224 31.896V41.424C51.224 41.856 51.216 42.256 51.2 42.624C51.184 42.992 51.16 43.28 51.128 43.488C51.4 43.472 51.712 43.456 52.064 43.44C52.432 43.424 52.712 43.416 52.904 43.416V45H46.52V43.68C46.968 43.664 47.312 43.592 47.552 43.464C47.792 43.32 47.96 43.08 48.056 42.744C48.152 42.392 48.2 41.912 48.2 41.304V37.248L40.952 37.344V41.424C40.952 41.856 40.944 42.256 40.928 42.624C40.912 42.992 40.888 43.28 40.856 43.488C41.128 43.472 41.44 43.456 41.792 43.44C42.144 43.424 42.424 43.416 42.632 43.416V45H36.248ZM59.6094 45.384C58.6814 45.384 57.9214 45.208 57.3294 44.856C56.7534 44.504 56.3294 43.944 56.0574 43.176C55.7854 42.392 55.6494 41.368 55.6494 40.104V36.84C55.6494 36.568 55.6574 36.264 55.6734 35.928C55.6894 35.592 55.7054 35.256 55.7214 34.92C55.4654 34.936 55.1774 34.952 54.8574 34.968C54.5374 34.968 54.2734 34.976 54.0654 34.992V33.456H54.4734C55.3534 33.456 56.0334 33.384 56.5134 33.24C57.0094 33.08 57.3454 32.92 57.5214 32.76H58.6254V40.104C58.6254 41.256 58.7774 42.112 59.0814 42.672C59.4014 43.232 59.9134 43.512 60.6174 43.512C61.0974 43.496 61.5694 43.352 62.0334 43.08C62.5134 42.808 62.8974 42.488 63.1854 42.12V36.936C63.1854 36.616 63.1934 36.288 63.2094 35.952C63.2254 35.6 63.2494 35.256 63.2814 34.92C63.0254 34.936 62.7294 34.952 62.3934 34.968C62.0734 34.968 61.8094 34.976 61.6014 34.992V33.456H62.2254C62.9614 33.456 63.5694 33.376 64.0494 33.216C64.5454 33.056 64.8734 32.904 65.0334 32.76H66.1374V41.376C66.1374 41.6 66.1294 41.928 66.1134 42.36C66.0974 42.792 66.0734 43.184 66.0414 43.536C66.3134 43.504 66.6014 43.488 66.9054 43.488C67.2094 43.472 67.4574 43.456 67.6494 43.44V45H63.4734C63.4414 44.776 63.4094 44.552 63.3774 44.328C63.3614 44.104 63.3454 43.888 63.3294 43.68C62.8334 44.128 62.2734 44.528 61.6494 44.88C61.0414 45.216 60.3614 45.384 59.6094 45.384ZM69.2893 45V43.728C69.7533 43.728 70.0813 43.632 70.2733 43.44C70.4653 43.232 70.5853 42.944 70.6333 42.576C70.6813 42.208 70.7053 41.792 70.7053 41.328V36.816C70.7053 36.528 70.7133 36.224 70.7293 35.904C70.7453 35.584 70.7693 35.256 70.8013 34.92C70.5293 34.936 70.2333 34.952 69.9133 34.968C69.5933 34.984 69.3293 35 69.1213 35.016V33.456C69.8413 33.456 70.4333 33.424 70.8973 33.36C71.3613 33.28 71.7213 33.184 71.9773 33.072C72.2333 32.96 72.4173 32.856 72.5293 32.76H73.5373C73.5693 32.92 73.5853 33.12 73.5853 33.36C73.6013 33.584 73.6173 33.792 73.6333 33.984C74.1613 33.568 74.7373 33.24 75.3613 33C75.9853 32.744 76.5933 32.616 77.1853 32.616C77.9373 32.616 78.5613 32.752 79.0573 33.024C79.5693 33.296 79.9693 33.688 80.2573 34.2C80.8173 33.736 81.4493 33.36 82.1533 33.072C82.8573 32.768 83.5373 32.616 84.1933 32.616C85.5213 32.616 86.5133 33.008 87.1693 33.792C87.8413 34.56 88.1693 35.872 88.1533 37.728V41.568C88.1533 41.824 88.1453 42.136 88.1293 42.504C88.1133 42.856 88.0893 43.2 88.0573 43.536C88.3133 43.504 88.5853 43.488 88.8733 43.488C89.1613 43.472 89.4013 43.464 89.5933 43.464V45H83.9053V43.728C84.3213 43.728 84.6173 43.632 84.7933 43.44C84.9693 43.232 85.0733 42.944 85.1053 42.576C85.1533 42.208 85.1773 41.792 85.1773 41.328V37.752C85.1773 36.6 84.9933 35.776 84.6253 35.28C84.2573 34.784 83.7373 34.536 83.0653 34.536C82.6173 34.52 82.1853 34.608 81.7693 34.8C81.3693 34.976 81.0173 35.192 80.7133 35.448C80.7933 35.752 80.8493 36.08 80.8813 36.432C80.9133 36.784 80.9293 37.16 80.9293 37.56C80.9293 38.232 80.9293 38.904 80.9293 39.576C80.9293 40.232 80.9213 40.896 80.9053 41.568C80.9053 41.824 80.8973 42.136 80.8813 42.504C80.8813 42.856 80.8573 43.2 80.8093 43.536C81.0653 43.504 81.3373 43.488 81.6253 43.488C81.9133 43.472 82.1613 43.464 82.3693 43.464V45H76.6093V43.728C77.0413 43.728 77.3453 43.632 77.5213 43.44C77.7133 43.232 77.8333 42.944 77.8813 42.576C77.9293 42.208 77.9533 41.792 77.9533 41.328V37.704C77.9533 36.552 77.7773 35.736 77.4253 35.256C77.0893 34.76 76.5853 34.504 75.9133 34.488C75.4813 34.488 75.0653 34.584 74.6653 34.776C74.2813 34.968 73.9453 35.2 73.6573 35.472C73.6573 35.68 73.6573 35.888 73.6573 36.096C73.6573 36.288 73.6573 36.488 73.6573 36.696V41.568C73.6573 41.824 73.6493 42.136 73.6333 42.504C73.6333 42.856 73.6093 43.2 73.5613 43.536C73.8173 43.504 74.0733 43.488 74.3293 43.488C74.6013 43.472 74.8333 43.464 75.0253 43.464V45H69.2893ZM98.0444 45C97.9964 44.76 97.9644 44.56 97.9484 44.4C97.9484 44.224 97.9404 44.024 97.9244 43.8C97.3804 44.344 96.7964 44.744 96.1724 45C95.5644 45.256 94.9324 45.384 94.2764 45.384C93.1884 45.384 92.3484 45.088 91.7564 44.496C91.1804 43.904 90.8924 43.176 90.8924 42.312C90.8924 41.544 91.1004 40.896 91.5164 40.368C91.9324 39.824 92.4764 39.384 93.1484 39.048C93.8204 38.696 94.5644 38.432 95.3804 38.256C96.1964 38.064 97.0044 37.96 97.8044 37.944V36.624C97.8044 36.16 97.7484 35.736 97.6364 35.352C97.5404 34.952 97.3564 34.64 97.0844 34.416C96.8124 34.176 96.4124 34.056 95.8844 34.056C95.5324 34.072 95.1724 34.152 94.8044 34.296C94.4524 34.424 94.1724 34.632 93.9644 34.92C94.0924 35.064 94.1724 35.224 94.2044 35.4C94.2364 35.56 94.2524 35.704 94.2524 35.832C94.2524 36.12 94.1404 36.424 93.9164 36.744C93.6924 37.048 93.3324 37.192 92.8364 37.176C92.4044 37.16 92.0684 37.008 91.8284 36.72C91.6044 36.432 91.4924 36.088 91.4924 35.688C91.4924 35.08 91.7084 34.552 92.1404 34.104C92.5884 33.64 93.1884 33.28 93.9404 33.024C94.6924 32.752 95.5324 32.616 96.4604 32.616C97.8364 32.616 98.8924 32.976 99.6284 33.696C100.364 34.416 100.724 35.568 100.708 37.152C100.708 37.712 100.708 38.224 100.708 38.688C100.708 39.136 100.7 39.592 100.684 40.056C100.684 40.504 100.684 41.008 100.684 41.568C100.684 41.808 100.676 42.112 100.66 42.48C100.644 42.832 100.62 43.184 100.588 43.536C100.876 43.504 101.164 43.488 101.452 43.488C101.756 43.472 102.004 43.456 102.196 43.44V45H98.0444ZM97.7804 39.36C97.3004 39.392 96.8284 39.472 96.3644 39.6C95.9004 39.712 95.4844 39.872 95.1164 40.08C94.7484 40.288 94.4524 40.552 94.2284 40.872C94.0204 41.176 93.9244 41.528 93.9404 41.928C93.9564 42.424 94.1164 42.792 94.4204 43.032C94.7244 43.256 95.0764 43.368 95.4764 43.368C95.9404 43.368 96.3564 43.272 96.7244 43.08C97.1084 42.888 97.4604 42.632 97.7804 42.312C97.7804 42.152 97.7804 41.984 97.7804 41.808C97.7804 41.632 97.7804 41.456 97.7804 41.28C97.7804 41.056 97.7804 40.776 97.7804 40.44C97.7804 40.104 97.7804 39.744 97.7804 39.36ZM103.672 45V43.728C104.136 43.728 104.464 43.632 104.656 43.44C104.848 43.232 104.968 42.944 105.016 42.576C105.064 42.208 105.088 41.792 105.088 41.328V36.816C105.088 36.528 105.096 36.224 105.112 35.904C105.128 35.584 105.152 35.256 105.184 34.92C104.928 34.936 104.632 34.952 104.296 34.968C103.976 34.984 103.712 35 103.504 35.016V33.456C104.224 33.456 104.816 33.424 105.28 33.36C105.744 33.28 106.104 33.184 106.36 33.072C106.616 32.96 106.8 32.856 106.912 32.76H107.92C107.952 32.936 107.968 33.08 107.968 33.192C107.968 33.304 107.976 33.424 107.992 33.552C108.008 33.664 108.032 33.832 108.064 34.056C108.384 33.784 108.752 33.544 109.168 33.336C109.6 33.112 110.032 32.936 110.464 32.808C110.896 32.68 111.296 32.616 111.664 32.616C113.104 32.616 114.136 33.04 114.76 33.888C115.384 34.736 115.696 36.088 115.696 37.944V41.568C115.696 41.824 115.688 42.136 115.672 42.504C115.672 42.856 115.648 43.2 115.6 43.536C115.872 43.504 116.152 43.488 116.44 43.488C116.728 43.472 116.968 43.464 117.16 43.464V45H111.328V43.728C111.792 43.728 112.12 43.632 112.312 43.44C112.52 43.232 112.648 42.944 112.696 42.576C112.744 42.208 112.768 41.792 112.768 41.328L112.744 37.92C112.744 36.768 112.568 35.912 112.216 35.352C111.88 34.776 111.32 34.488 110.536 34.488C110.072 34.504 109.616 34.616 109.168 34.824C108.72 35.032 108.344 35.296 108.04 35.616C108.056 35.808 108.064 36.008 108.064 36.216C108.064 36.424 108.064 36.632 108.064 36.84L108.04 41.568C108.04 41.824 108.032 42.136 108.016 42.504C108.016 42.856 107.992 43.2 107.944 43.536C108.2 43.504 108.472 43.488 108.76 43.488C109.064 43.472 109.312 43.464 109.504 43.464V45H103.672ZM124.478 45.384C123.326 45.384 122.302 45.128 121.406 44.616C120.51 44.088 119.814 43.352 119.318 42.408C118.822 41.448 118.574 40.32 118.574 39.024C118.574 37.904 118.822 36.856 119.318 35.88C119.814 34.904 120.51 34.12 121.406 33.528C122.318 32.92 123.374 32.616 124.574 32.616C125.246 32.616 125.894 32.712 126.518 32.904C127.142 33.096 127.702 33.416 128.198 33.864C128.694 34.312 129.086 34.904 129.374 35.64C129.678 36.376 129.822 37.272 129.806 38.328L121.742 38.472C121.742 39.464 121.854 40.344 122.078 41.112C122.318 41.864 122.702 42.464 123.23 42.912C123.758 43.344 124.454 43.56 125.318 43.56C125.702 43.56 126.11 43.496 126.542 43.368C126.99 43.224 127.43 43.016 127.862 42.744C128.294 42.456 128.678 42.104 129.014 41.688L129.926 42.528C129.398 43.296 128.814 43.888 128.174 44.304C127.534 44.72 126.894 45 126.254 45.144C125.614 45.304 125.022 45.384 124.478 45.384ZM121.862 37.032H126.854C126.838 36.392 126.742 35.856 126.566 35.424C126.406 34.976 126.166 34.64 125.846 34.416C125.526 34.176 125.134 34.056 124.67 34.056C123.886 34.056 123.254 34.32 122.774 34.848C122.31 35.36 122.006 36.088 121.862 37.032ZM48.704 57.504C48.704 56.608 48.592 55.872 48.368 55.296C48.144 54.704 47.808 54.264 47.36 53.976C46.928 53.688 46.376 53.552 45.704 53.568H44.24V65.424C44.24 65.856 44.232 66.256 44.216 66.624C44.2 66.992 44.176 67.28 44.144 67.488C44.448 67.472 44.792 67.456 45.176 67.44C45.576 67.424 45.88 67.416 46.088 67.416V69H39.536V67.68C39.984 67.664 40.328 67.584 40.568 67.44C40.808 67.296 40.976 67.056 41.072 66.72C41.168 66.384 41.216 65.912 41.216 65.304L41.24 53.592H39.68C38.736 53.608 38.016 53.928 37.52 54.552C37.024 55.176 36.776 56.16 36.776 57.504H35.432L35.552 52.2H49.928L50.072 57.504H48.704ZM56.0878 69.384C54.9358 69.384 53.9118 69.128 53.0158 68.616C52.1198 68.088 51.4238 67.352 50.9277 66.408C50.4317 65.448 50.1838 64.32 50.1838 63.024C50.1838 61.904 50.4317 60.856 50.9277 59.88C51.4238 58.904 52.1198 58.12 53.0158 57.528C53.9278 56.92 54.9838 56.616 56.1838 56.616C56.8558 56.616 57.5038 56.712 58.1278 56.904C58.7518 57.096 59.3118 57.416 59.8078 57.864C60.3038 58.312 60.6958 58.904 60.9838 59.64C61.2878 60.376 61.4318 61.272 61.4158 62.328L53.3518 62.472C53.3518 63.464 53.4638 64.344 53.6878 65.112C53.9278 65.864 54.3118 66.464 54.8398 66.912C55.3678 67.344 56.0638 67.56 56.9278 67.56C57.3118 67.56 57.7198 67.496 58.1518 67.368C58.5998 67.224 59.0398 67.016 59.4718 66.744C59.9038 66.456 60.2878 66.104 60.6238 65.688L61.5358 66.528C61.0078 67.296 60.4238 67.888 59.7838 68.304C59.1438 68.72 58.5038 69 57.8638 69.144C57.2238 69.304 56.6318 69.384 56.0878 69.384ZM53.4718 61.032H58.4638C58.4478 60.392 58.3518 59.856 58.1758 59.424C58.0158 58.976 57.7758 58.64 57.4558 58.416C57.1358 58.176 56.7438 58.056 56.2798 58.056C55.4958 58.056 54.8638 58.32 54.3838 58.848C53.9198 59.36 53.6158 60.088 53.4718 61.032ZM68.9784 69.384C67.9064 69.384 66.9144 69.144 66.0024 68.664C65.1064 68.184 64.3864 67.488 63.8424 66.576C63.3144 65.648 63.0504 64.536 63.0504 63.24C63.0504 62.36 63.2024 61.528 63.5064 60.744C63.8104 59.944 64.2344 59.24 64.7784 58.632C65.3384 58.008 66.0024 57.52 66.7704 57.168C67.5384 56.8 68.3864 56.616 69.3144 56.616C70.2904 56.616 71.1144 56.768 71.7864 57.072C72.4584 57.36 72.9704 57.752 73.3224 58.248C73.6744 58.728 73.8504 59.24 73.8504 59.784C73.8504 60.216 73.7224 60.592 73.4664 60.912C73.2264 61.232 72.8744 61.4 72.4104 61.416C71.8664 61.432 71.4824 61.28 71.2584 60.96C71.0504 60.624 70.9464 60.312 70.9464 60.024C70.9464 59.864 70.9704 59.696 71.0184 59.52C71.0664 59.328 71.1464 59.152 71.2584 58.992C71.1464 58.704 70.9624 58.496 70.7064 58.368C70.4504 58.224 70.1864 58.128 69.9144 58.08C69.6424 58.032 69.4264 58.016 69.2664 58.032C68.3864 58.064 67.6584 58.464 67.0824 59.232C66.5064 60 66.2184 61.12 66.2184 62.592C66.2184 63.472 66.3384 64.288 66.5784 65.04C66.8344 65.776 67.2184 66.376 67.7304 66.84C68.2424 67.288 68.8984 67.52 69.6984 67.536C70.4024 67.552 71.0824 67.384 71.7384 67.032C72.3944 66.664 72.9304 66.192 73.3464 65.616L74.3064 66.504C73.7784 67.256 73.2104 67.84 72.6024 68.256C71.9944 68.672 71.3784 68.96 70.7544 69.12C70.1464 69.296 69.5544 69.384 68.9784 69.384ZM83.1489 67.728C83.6129 67.728 83.9409 67.632 84.1329 67.44C84.3249 67.232 84.4449 66.944 84.4929 66.576C84.5409 66.208 84.5649 65.792 84.5649 65.328V61.92C84.5489 60.768 84.3649 59.912 84.0129 59.352C83.6609 58.792 83.1089 58.512 82.3569 58.512C81.8929 58.512 81.4289 58.616 80.9649 58.824C80.5169 59.032 80.1489 59.288 79.8609 59.592V65.568C79.8609 65.824 79.8529 66.136 79.8369 66.504C79.8209 66.856 79.7889 67.2 79.7409 67.536C80.0129 67.504 80.2929 67.488 80.5809 67.488C80.8689 67.472 81.1089 67.464 81.3009 67.464V69H75.4689V67.728C75.9329 67.728 76.2609 67.632 76.4529 67.44C76.6609 67.232 76.7809 66.944 76.8129 66.576C76.8609 66.208 76.8849 65.792 76.8849 65.328V54.96C76.8849 54.688 76.8929 54.392 76.9089 54.072C76.9249 53.736 76.9489 53.392 76.9809 53.04C76.7089 53.056 76.4129 53.072 76.0929 53.088C75.7729 53.104 75.5089 53.12 75.3009 53.136V51.576C76.0369 51.576 76.6369 51.544 77.1009 51.48C77.5649 51.4 77.9249 51.304 78.1809 51.192C78.4529 51.08 78.6449 50.976 78.7569 50.88H79.8609V58.032C80.1809 57.76 80.5489 57.52 80.9649 57.312C81.3969 57.104 81.8369 56.936 82.2849 56.808C82.7329 56.68 83.1409 56.616 83.5089 56.616C84.9489 56.616 85.9729 57.04 86.5809 57.888C87.2049 58.736 87.5169 60.088 87.5169 61.944L87.5409 65.568C87.5409 65.824 87.5329 66.136 87.5169 66.504C87.5009 66.856 87.4769 67.2 87.4449 67.536C87.7009 67.504 87.9649 67.488 88.2369 67.488C88.5249 67.472 88.7729 67.464 88.9809 67.464V69H83.1489V67.728ZM90.5471 69V67.728C91.0111 67.728 91.3391 67.632 91.5311 67.44C91.7231 67.232 91.8431 66.944 91.8911 66.576C91.9391 66.208 91.9631 65.792 91.9631 65.328V60.816C91.9631 60.528 91.9711 60.224 91.9871 59.904C92.0031 59.584 92.0271 59.256 92.0591 58.92C91.8031 58.936 91.5071 58.952 91.1711 58.968C90.8511 58.984 90.5871 59 90.3791 59.016V57.456C91.0991 57.456 91.6911 57.424 92.1551 57.36C92.6191 57.28 92.9791 57.184 93.2351 57.072C93.4911 56.96 93.6751 56.856 93.7871 56.76H94.7951C94.8271 56.936 94.8431 57.08 94.8431 57.192C94.8431 57.304 94.8511 57.424 94.8671 57.552C94.8831 57.664 94.9071 57.832 94.9391 58.056C95.2591 57.784 95.6271 57.544 96.0431 57.336C96.4751 57.112 96.9071 56.936 97.3391 56.808C97.7711 56.68 98.1711 56.616 98.5391 56.616C99.9791 56.616 101.011 57.04 101.635 57.888C102.259 58.736 102.571 60.088 102.571 61.944V65.568C102.571 65.824 102.563 66.136 102.547 66.504C102.547 66.856 102.523 67.2 102.475 67.536C102.747 67.504 103.027 67.488 103.315 67.488C103.603 67.472 103.843 67.464 104.035 67.464V69H98.2031V67.728C98.6671 67.728 98.9951 67.632 99.1871 67.44C99.3951 67.232 99.5231 66.944 99.5711 66.576C99.6191 66.208 99.6431 65.792 99.6431 65.328L99.6191 61.92C99.6191 60.768 99.4431 59.912 99.0911 59.352C98.7551 58.776 98.1951 58.488 97.4111 58.488C96.9471 58.504 96.4911 58.616 96.0431 58.824C95.5951 59.032 95.2191 59.296 94.9151 59.616C94.9311 59.808 94.9391 60.008 94.9391 60.216C94.9391 60.424 94.9391 60.632 94.9391 60.84L94.9151 65.568C94.9151 65.824 94.9071 66.136 94.8911 66.504C94.8911 66.856 94.8671 67.2 94.8191 67.536C95.0751 67.504 95.3471 67.488 95.6351 67.488C95.9391 67.472 96.1871 67.464 96.3791 67.464V69H90.5471ZM111.521 69.384C110.385 69.384 109.353 69.136 108.425 68.64C107.497 68.128 106.761 67.416 106.217 66.504C105.689 65.576 105.425 64.496 105.425 63.264C105.425 61.968 105.697 60.816 106.241 59.808C106.785 58.8 107.513 58.016 108.425 57.456C109.353 56.896 110.369 56.616 111.473 56.616C112.609 56.616 113.633 56.872 114.545 57.384C115.457 57.896 116.177 58.608 116.705 59.52C117.249 60.432 117.521 61.512 117.521 62.76C117.521 64.072 117.257 65.232 116.729 66.24C116.217 67.232 115.505 68.008 114.593 68.568C113.697 69.112 112.673 69.384 111.521 69.384ZM111.641 67.92C112.361 67.92 112.913 67.696 113.297 67.248C113.681 66.8 113.945 66.232 114.089 65.544C114.249 64.84 114.329 64.12 114.329 63.384C114.329 62.76 114.273 62.128 114.161 61.488C114.065 60.848 113.905 60.272 113.681 59.76C113.457 59.232 113.161 58.816 112.793 58.512C112.425 58.192 111.977 58.032 111.449 58.032C110.745 58.048 110.185 58.28 109.769 58.728C109.353 59.176 109.049 59.744 108.857 60.432C108.681 61.12 108.593 61.848 108.593 62.616C108.593 63.48 108.697 64.328 108.905 65.16C109.113 65.976 109.441 66.648 109.889 67.176C110.337 67.688 110.921 67.936 111.641 67.92ZM118.945 67.728C119.409 67.728 119.737 67.632 119.929 67.44C120.137 67.232 120.257 66.944 120.289 66.576C120.337 66.208 120.361 65.792 120.361 65.328V54.96C120.361 54.688 120.369 54.392 120.385 54.072C120.401 53.736 120.425 53.392 120.457 53.04C120.185 53.056 119.889 53.072 119.569 53.088C119.249 53.104 118.977 53.12 118.753 53.136V51.576C119.489 51.576 120.089 51.544 120.553 51.48C121.033 51.4 121.401 51.304 121.657 51.192C121.929 51.08 122.121 50.976 122.233 50.88H123.313L123.337 65.568C123.337 65.824 123.329 66.136 123.313 66.504C123.297 66.856 123.265 67.2 123.217 67.536C123.489 67.504 123.769 67.488 124.057 67.488C124.345 67.472 124.585 67.464 124.777 67.464V69H118.945V67.728ZM132.357 69.384C131.221 69.384 130.189 69.136 129.261 68.64C128.333 68.128 127.597 67.416 127.053 66.504C126.525 65.576 126.261 64.496 126.261 63.264C126.261 61.968 126.533 60.816 127.077 59.808C127.621 58.8 128.349 58.016 129.261 57.456C130.189 56.896 131.205 56.616 132.309 56.616C133.445 56.616 134.469 56.872 135.381 57.384C136.293 57.896 137.013 58.608 137.541 59.52C138.085 60.432 138.357 61.512 138.357 62.76C138.357 64.072 138.093 65.232 137.565 66.24C137.053 67.232 136.341 68.008 135.429 68.568C134.533 69.112 133.509 69.384 132.357 69.384ZM132.477 67.92C133.197 67.92 133.749 67.696 134.133 67.248C134.517 66.8 134.781 66.232 134.925 65.544C135.085 64.84 135.165 64.12 135.165 63.384C135.165 62.76 135.109 62.128 134.997 61.488C134.901 60.848 134.741 60.272 134.517 59.76C134.293 59.232 133.997 58.816 133.629 58.512C133.261 58.192 132.813 58.032 132.285 58.032C131.581 58.048 131.021 58.28 130.605 58.728C130.189 59.176 129.885 59.744 129.693 60.432C129.517 61.12 129.429 61.848 129.429 62.616C129.429 63.48 129.533 64.328 129.741 65.16C129.949 65.976 130.277 66.648 130.725 67.176C131.173 67.688 131.757 67.936 132.477 67.92ZM145.564 75.504C144.156 75.504 143.036 75.352 142.204 75.048C141.388 74.744 140.796 74.344 140.428 73.848C140.076 73.368 139.9 72.864 139.9 72.336C139.9 71.936 139.988 71.56 140.164 71.208C140.34 70.872 140.596 70.552 140.932 70.248C141.268 69.944 141.676 69.704 142.156 69.528C141.548 69.352 141.108 69.088 140.836 68.736C140.564 68.368 140.428 67.952 140.428 67.488C140.428 67.024 140.612 66.536 140.98 66.024C141.364 65.512 141.964 65.152 142.78 64.944C142.092 64.64 141.524 64.192 141.076 63.6C140.644 63.008 140.42 62.304 140.404 61.488C140.388 60.528 140.628 59.68 141.124 58.944C141.636 58.208 142.3 57.64 143.116 57.24C143.932 56.824 144.78 56.616 145.66 56.616C146.108 56.616 146.604 56.68 147.148 56.808C147.692 56.936 148.172 57.136 148.588 57.408C148.748 56.928 148.972 56.488 149.26 56.088C149.548 55.672 149.884 55.336 150.268 55.08C150.668 54.824 151.108 54.696 151.588 54.696C152.084 54.696 152.46 54.824 152.716 55.08C152.972 55.336 153.1 55.68 153.1 56.112C153.1 56.288 153.06 56.48 152.98 56.688C152.9 56.896 152.764 57.072 152.572 57.216C152.38 57.36 152.116 57.432 151.78 57.432C151.524 57.432 151.284 57.344 151.06 57.168C150.852 56.992 150.724 56.776 150.676 56.52C150.404 56.584 150.156 56.784 149.932 57.12C149.724 57.456 149.596 57.776 149.548 58.08C149.98 58.464 150.316 58.92 150.556 59.448C150.796 59.96 150.916 60.512 150.916 61.104C150.916 62.016 150.66 62.832 150.148 63.552C149.652 64.256 148.996 64.808 148.18 65.208C147.38 65.608 146.516 65.808 145.588 65.808C145.348 65.808 145.108 65.8 144.868 65.784C144.628 65.752 144.372 65.736 144.1 65.736C143.668 65.736 143.308 65.824 143.02 66C142.748 66.176 142.628 66.408 142.66 66.696C142.708 67.032 142.996 67.256 143.524 67.368C144.052 67.464 144.868 67.544 145.972 67.608C147.204 67.672 148.276 67.824 149.188 68.064C150.1 68.304 150.804 68.68 151.3 69.192C151.796 69.72 152.044 70.44 152.044 71.352C152.044 72.024 151.852 72.616 151.468 73.128C151.084 73.64 150.572 74.072 149.932 74.424C149.308 74.776 148.612 75.04 147.844 75.216C147.092 75.408 146.332 75.504 145.564 75.504ZM146.02 74.088C147.236 74.088 148.164 73.864 148.804 73.416C149.444 72.968 149.764 72.48 149.764 71.952C149.764 71.536 149.612 71.2 149.308 70.944C149.004 70.704 148.572 70.52 148.012 70.392C147.452 70.264 146.756 70.184 145.924 70.152C145.556 70.136 145.148 70.112 144.7 70.08C144.252 70.064 143.844 70.024 143.476 69.96C143.172 70.184 142.932 70.464 142.756 70.8C142.596 71.136 142.516 71.472 142.516 71.808C142.484 72.496 142.788 73.048 143.428 73.464C144.068 73.88 144.932 74.088 146.02 74.088ZM145.684 64.464C146.164 64.464 146.564 64.328 146.884 64.056C147.22 63.768 147.468 63.408 147.628 62.976C147.804 62.528 147.892 62.056 147.892 61.56C147.892 60.952 147.812 60.376 147.652 59.832C147.492 59.272 147.244 58.824 146.908 58.488C146.572 58.136 146.148 57.96 145.636 57.96C144.916 57.96 144.356 58.264 143.956 58.872C143.572 59.464 143.38 60.168 143.38 60.984C143.38 61.608 143.468 62.192 143.644 62.736C143.836 63.264 144.1 63.688 144.436 64.008C144.788 64.312 145.204 64.464 145.684 64.464ZM156.484 75.504C155.908 75.504 155.42 75.344 155.02 75.024C154.62 74.704 154.42 74.264 154.42 73.704C154.42 73.32 154.548 72.976 154.804 72.672C155.06 72.384 155.388 72.232 155.788 72.216C156.14 72.2 156.42 72.312 156.628 72.552C156.852 72.808 156.964 73.112 156.964 73.464C156.964 73.512 156.964 73.56 156.964 73.608C156.964 73.672 156.956 73.736 156.94 73.8C156.972 73.8 157.028 73.8 157.108 73.8C157.268 73.768 157.436 73.648 157.612 73.44C157.804 73.248 157.98 72.984 158.14 72.648C158.332 72.28 158.532 71.824 158.74 71.28C158.948 70.752 159.148 70.16 159.34 69.504L155.572 61.752C155.14 60.856 154.844 60.168 154.684 59.688C154.54 59.208 154.436 58.808 154.372 58.488L153.268 58.536V57H158.908V58.272H158.86C158.252 58.32 157.916 58.552 157.852 58.968C157.788 59.368 157.892 59.864 158.164 60.456L160.684 66.048C160.908 65.424 161.156 64.656 161.428 63.744C161.716 62.832 162.036 61.872 162.388 60.864C162.468 60.608 162.564 60.328 162.676 60.024C162.804 59.704 162.932 59.4 163.06 59.112C163.188 58.824 163.316 58.608 163.444 58.464L161.98 58.536V57H166.084V58.272C165.556 58.416 165.132 58.744 164.812 59.256C164.508 59.752 164.22 60.376 163.948 61.128L160.948 69.624C160.484 70.936 160.052 72.024 159.652 72.888C159.252 73.768 158.804 74.424 158.308 74.856C157.828 75.288 157.22 75.504 156.484 75.504Z" fill="black"></path>
<g clip-path="url(#clip0_453_4602)">
<path d="M9.82337 69.0107C9.44439 69.2709 9.06541 69.531 8.63916 69.8119C8.47211 69.9007 8.33561 69.9499 8.23526 70.0399C7.63196 70.5805 7.03171 71.1248 6.44111 71.6793C6.07159 72.0262 5.71919 72.3917 5.36223 72.752C5.17607 72.9399 4.98965 72.9592 4.80672 72.7588C4.58517 72.516 4.36954 72.2677 4.15542 72.0182C3.85255 71.6654 3.5534 71.3094 3.25266 70.9547C3.25266 70.9547 3.25589 70.9575 3.25303 70.9311C2.94958 70.4669 2.64899 70.0293 2.3484 69.5916C2.27616 69.47 2.20392 69.3484 2.12403 69.1825C1.78846 68.5546 1.45057 67.9763 1.13495 67.386C0.65095 66.4808 0.185926 65.5654 -0.296566 64.6594C-0.375968 64.5103 -0.503549 64.3871 -0.608863 64.2519C-0.612395 64.2325 -0.615928 64.2131 -0.621783 64.1433C-0.738888 63.7574 -0.859409 63.4239 -0.966519 63.086C-1.04309 62.8445 -1.03809 62.6269 -0.732556 62.5431C-0.158106 62.3856 0.42624 62.2558 0.986845 62.0584C1.60307 61.8413 2.19719 61.5609 2.80094 61.3081C3.0682 61.1836 3.33546 61.0591 3.654 60.9329C4.10651 60.7506 4.55338 60.6319 4.89856 60.3753C5.45005 59.9653 6.10651 59.5545 6.40645 58.9798C6.86682 58.0976 7.06236 57.076 7.37028 56.1136C7.37028 56.1136 7.37235 56.1097 7.39059 56.089C7.54525 55.7546 7.69519 55.4459 7.81391 55.1255C7.91345 54.8569 7.97656 54.5746 8.05579 54.2984C8.05691 54.28 8.05802 54.2616 8.08458 54.2076C8.19833 54.0837 8.31298 54.01 8.37076 53.9047C8.81396 53.0978 9.33215 52.3533 9.97396 51.6855C10.8337 50.791 11.8037 50.0816 12.974 49.6631C13.5448 49.459 14.1192 49.2648 14.6919 49.0662C14.6919 49.0662 14.6883 49.069 14.7176 49.0682C15.0751 48.9459 15.4033 48.8244 15.7315 48.7029C16.0273 48.609 16.3178 48.4896 16.6201 48.4274C17.047 48.3395 17.4827 48.2938 17.9719 48.2355C18.542 48.0562 19.0548 47.8715 19.5676 47.6869C19.95 47.4871 20.3324 47.2873 20.7725 47.0804C20.8788 47.062 20.9294 47.0557 20.976 47.0386C21.2384 46.9419 21.5164 46.8222 21.7384 47.0859C21.9507 47.3381 21.8156 47.605 21.7078 47.8646C21.6181 48.0808 21.5489 48.3056 21.4707 48.5266C21.3717 48.6476 21.2728 48.7686 21.1337 48.9173C21.0494 48.9689 21.0018 48.9881 20.9614 49.0173C20.303 49.4949 19.6442 49.9721 18.9895 50.4549C18.9228 50.5041 18.8335 50.5414 18.7807 50.6096C18.5882 50.7054 18.4474 50.8562 18.2509 50.943C17.6735 51.1977 17.0866 51.4318 16.5168 51.7024C16.2368 51.8355 15.9864 52.0315 15.6743 52.202C15.5168 52.2611 14.9774 52.795 14.8852 52.8719C13.8123 53.7673 13.533 54.418 13.2294 55.7715C13.0602 56.5261 13.0388 57.3059 13.3637 58.0602C13.5269 58.4388 13.6331 58.8367 13.5184 59.2821C13.4381 59.5936 13.4614 59.9434 13.4946 60.2704C13.5576 60.8915 14.4114 61.7241 14.9898 61.7683C14.991 61.805 14.9922 61.8416 14.9958 61.9381C15.0467 62.3372 15.1127 62.6752 15.1401 63.0163C15.2094 63.8773 15.2595 64.7399 15.3223 65.6014C15.3306 65.7145 15.3832 65.8245 15.3896 65.9374C15.4283 66.6208 15.6632 67.3265 15.176 67.9539C15.1519 67.9577 15.1278 67.9616 15.0486 67.9706C14.1482 68.2646 13.2847 68.4225 12.3865 68.3676C12.0454 68.3468 11.6994 68.3326 11.3604 68.3654C10.7877 68.4208 10.2425 68.5723 9.82337 69.0107Z" fill="black"></path>
</g>
<g clip-path="url(#clip1_453_4602)">
<path d="M7.56305 51.8355C7.14438 52.0115 6.70578 52.1523 6.31352 52.3749C6.01424 52.5446 5.77367 52.8179 5.48483 53.0853C4.94166 53.701 4.42201 54.2779 3.89742 54.8503C3.8473 54.905 3.76634 54.9314 3.6997 54.9709C3.34089 55.4498 2.96027 55.9141 2.62965 56.4116C2.3251 56.87 2.07428 57.364 1.79577 57.8848C1.54002 58.4692 1.26825 59.0029 1.0406 59.5547C0.532624 60.7862 0.242257 62.0742 0.116518 63.3987C0.0672666 63.9175 0.0341816 64.438 0.00384669 64.9584C-0.00710206 65.1461 0.00347917 65.3363 0.018568 65.5241C0.041616 65.8111 0.0990134 66.0967 0.103356 66.3835C0.118706 67.397 0.110942 68.4109 0.125789 69.4244C0.133091 69.9225 0.235514 70.0391 0.710228 70.1644C0.87061 70.2068 1.03746 70.224 1.20048 70.2571C1.58874 70.3359 1.97647 70.4172 2.36442 70.4975C2.73626 70.5706 3.1081 70.6437 3.53647 70.708C4.00902 70.7262 4.42469 70.7618 4.84112 70.7784C6.05136 70.8264 7.26084 70.8584 8.39779 70.3261C8.43426 70.323 8.53669 70.2517 8.53669 70.2517C8.53669 70.2517 8.87082 69.9123 9.01153 69.7288C9.26069 69.4039 9.57585 69.1057 9.73531 68.7405C10.1299 67.8366 10.3085 66.869 10.2934 65.8816C10.2755 64.7052 10.2107 63.5295 10.1742 62.3532C10.1231 60.7093 10.0854 59.0651 10.0281 57.4214C10.0141 57.0188 10.1594 56.7098 10.4601 56.4337C11.1305 55.8066 11.7853 55.1916 12.4559 54.5943C12.6001 54.4659 12.8014 54.4016 12.9879 54.2888C13.3274 54.0603 13.6554 53.8509 14.0091 53.6393C14.0691 53.6331 14.2861 53.4013 14.3287 53.3779C14.6336 53.1307 14.7463 53.1294 15.0442 52.9036C16.3053 51.9476 17.3169 50.8001 17.7279 49.2332C17.8704 48.6901 18.0816 48.1312 17.7286 47.555C17.4095 47.034 17.2024 46.9754 16.749 47.3932C16.4383 47.6796 16.134 47.9736 15.8129 48.2481C15.0413 48.9077 14.1471 49.3567 13.2042 49.7096C11.704 50.271 10.1986 50.8183 8.67987 51.3876C8.29721 51.5476 7.93013 51.6915 7.56305 51.8355Z" fill="black"></path>
</g>
<path d="M9.81203 16.9322C9.81494 16.9142 9.85926 16.7433 9.85926 16.7433C9.85926 16.7433 9.89045 16.5162 9.94495 16.3927C10.331 15.5179 10.6623 14.6151 11.1032 13.7692C12.2064 11.6522 13.4023 9.58352 14.1766 7.30842C14.5978 6.07121 14.6818 4.7938 14.7526 3.50869C14.762 3.33802 14.8105 3.16951 14.8408 3C14.9985 3.0862 15.186 3.1421 15.3091 3.26342C16.2261 4.16763 17.1525 5.06407 18.0327 6.00353C18.9812 7.01595 19.7201 8.18492 20.3778 9.40292C21.2062 10.9369 21.7527 12.5714 22.0002 14.2938C22.1156 15.097 22.1806 15.9178 22.1572 16.7274C22.1348 17.5046 21.9587 18.2765 21.8677 19.0527C21.6845 20.6159 21.1559 22.0679 20.4873 23.4795C20.4209 23.6197 20.3555 23.7331 20.2677 23.9019C20.1966 24.0386 20.0972 24.3075 19.9298 24.5517C19.8495 24.7063 19.809 24.803 19.7532 24.8913C19.2617 25.6691 18.7667 26.445 18.2939 27.2342C17.9517 27.8056 17.6417 28.3963 17.3174 28.9785C17.3174 28.9785 17.3184 28.9733 17.2928 28.9881C17.0951 29.3096 16.9739 29.5188 16.8018 29.8255C16.8018 29.8255 16.8018 29.8255 16.7255 29.9312C16.5552 30.1673 16.3168 30.3158 16.1738 30.5332C15.9325 30.8999 15.7101 31.2825 15.5167 31.6765C15.1304 32.4636 14.7507 33.255 14.4058 34.0607C14.2439 34.4387 14.1693 34.8541 14.0551 35.2526C14.0123 35.2545 13.9694 35.2563 13.9266 35.2582C13.8695 35.1601 13.7824 35.0683 13.7606 34.963C13.678 34.5638 13.5774 34.1624 13.5542 33.7579C13.4709 32.3017 13.4016 30.8443 13.3561 29.3864C13.3272 28.4589 13.3851 27.5277 13.3332 26.6022C13.3094 26.1783 13.2029 25.7091 12.9818 25.3555C12.3095 24.2803 11.508 23.2842 10.8615 22.1951C10.2543 21.1723 9.72802 20.0928 9.74452 18.8395C9.75311 18.1872 9.81203 17.0739 9.81203 16.9322Z" fill="black"></path>
<path d="M27.7773 25.0772C27.7872 25.2983 27.7971 25.5194 27.7962 25.8188C27.8229 26.3305 27.9029 26.7653 27.8898 27.1973C27.8538 28.388 27.8091 29.58 27.7124 30.7669C27.5635 32.5949 26.8792 34.2675 25.87 35.7546C24.453 37.8425 22.5027 39.3377 20.152 40.2917C20.0176 40.3462 19.9124 40.4729 19.7936 40.5659C19.2498 40.665 18.706 40.7641 18.079 40.8673C17.7599 40.8731 17.524 40.8772 17.2881 40.8763C16.6329 40.8739 16.5241 40.7612 16.3597 40.1256C16.0464 38.9138 15.9052 37.684 16.0036 36.4402C16.0501 35.8526 16.1562 35.2508 16.3534 34.6976C16.8889 33.1954 17.9849 32.0711 19.0456 30.9349C19.5987 30.3424 20.1834 29.7789 20.7631 29.2117C22.0691 27.934 22.9738 26.3923 23.5755 24.6932C23.9437 23.6535 24.3333 22.6049 24.3208 21.4521C24.3094 20.3896 24.4265 19.3256 24.4912 18.2625C24.4965 18.1764 24.534 18.0921 24.579 17.9219C24.7017 18.0937 24.7914 18.1953 24.8543 18.3113C25.2655 19.069 25.7253 19.8064 26.065 20.5952C26.5414 21.7011 26.9262 22.8464 27.3519 23.9742C27.491 24.3429 27.6353 24.7096 27.7773 25.0772Z" fill="black"></path>
<path d="M10.695 40.1201C10.456 40.0626 10.1833 40.0598 9.98457 39.9371C9.45925 39.6129 8.96596 39.2368 8.43452 38.8225C8.30324 38.6296 8.21219 38.4797 8.08911 38.3639C7.19817 37.5255 6.40858 36.6064 5.77542 35.5548C5.69153 35.4155 5.53184 35.3218 5.40726 35.207C5.40726 35.207 5.41177 35.2093 5.41091 35.1733C5.3745 34.9691 5.36955 34.7866 5.29876 34.6348C4.35609 32.614 3.95215 30.4958 4.08822 28.268C4.16995 26.9298 4.3986 25.6179 4.89262 24.3774C5.47262 22.9211 6.13113 21.4954 6.78071 20.0679C6.9496 19.6967 7.21209 19.3681 7.43926 19.0078C7.54407 19.093 7.59697 19.1149 7.61125 19.1517C7.65066 19.2533 7.68213 19.3596 7.70234 19.4668C8.03046 21.2066 8.82555 22.7589 9.67799 24.2795C10.1058 25.0426 10.6363 25.7482 11.1202 26.48C11.4366 26.9586 11.6251 27.459 11.6646 28.0558C11.7523 29.3841 11.4188 30.6912 11.6131 32.0362C11.7654 33.0908 11.8672 34.1408 12.1653 35.174C12.6869 36.982 13.4078 38.6964 14.3603 40.3164C14.3841 40.3569 14.4191 40.401 14.4191 40.4434C14.419 40.5949 14.459 40.7886 14.382 40.8853C14.3142 40.9705 14.1007 40.9926 13.9681 40.9644C13.2771 40.8177 12.5893 40.6543 11.9047 40.4799C11.4974 40.3761 11.098 40.2411 10.695 40.1201Z" fill="black"></path>
<path d="M12.5958 48.0536C12.477 47.8542 12.3582 47.6548 12.2425 47.3981C12.248 47.1776 12.302 46.9926 12.2434 46.8556C12.0528 46.4098 11.8837 45.9329 11.5917 45.557C11.0495 44.859 10.5098 44.1207 9.56699 43.8957C9.56699 43.8957 9.57197 43.8975 9.55375 43.8751C9.16812 43.6782 8.80071 43.5038 8.4333 43.3294C8.4333 43.3294 8.4381 43.3312 8.42409 43.3046C8.35416 43.2021 8.29654 43.1275 8.24262 43.0503C7.96923 42.6587 8.06728 42.4386 8.53861 42.4005C8.7105 42.3867 8.88473 42.389 9.05723 42.3975C10.2629 42.4566 11.4682 42.5235 12.6741 42.5792C13.2701 42.6067 13.8672 42.6099 14.4634 42.6349C15.0571 42.6598 15.6509 42.734 16.2434 42.7222C17.0097 42.7068 17.7742 42.6194 18.5403 42.5778C19.7454 42.5126 20.9511 42.4565 22.1568 42.4036C22.4863 42.3892 22.8173 42.3899 23.1469 42.4025C23.4452 42.4139 23.5793 42.6135 23.4005 42.8385C23.1971 43.0944 22.9025 43.2803 22.6384 43.4847C22.4465 43.6332 22.2396 43.7624 22.0394 43.9003C21.8314 44.0454 21.6234 44.1905 21.3638 44.352C20.5758 44.7178 20.0731 45.2773 19.8035 46.0463C19.4629 46.1179 19.1224 46.1895 18.7145 46.2608C18.1394 46.485 17.6317 46.7097 17.124 46.9343C16.4783 47.149 15.8327 47.3636 15.1176 47.5739C14.2307 47.7309 13.4133 47.8923 12.5958 48.0536Z" fill="black"></path>
<path d="M22.4286 58.7146C21.8773 59.0955 21.3443 59.5076 20.7683 59.8465C20.3699 60.081 19.9125 60.2158 19.4806 60.3929C18.4084 60.8326 17.3395 61.2868 16.0655 61.1766C15.1151 61.2064 14.2336 61.307 13.3624 61.2497C12.8373 61.2152 12.2962 60.9942 11.8274 60.7378C11.6277 60.6286 11.4697 60.1897 11.5188 59.9462C11.5736 59.6744 11.8418 59.3789 12.0968 59.2323C12.3675 59.0767 12.7315 59.0309 13.0553 59.029C14.3864 59.0211 15.6766 58.7701 16.9508 58.4214C17.2131 58.3496 17.4491 58.1814 17.6972 58.0577C17.6972 58.0577 17.6932 58.0614 17.7291 58.0611C18.2983 57.815 18.8316 57.5692 19.365 57.3235C19.5198 57.229 19.6747 57.1345 19.8864 57.031C20.004 57.0089 20.0755 57.0122 20.1238 56.9804C21.4792 56.0889 22.7665 55.1168 23.7816 53.8309C24.1629 53.3478 24.6074 53.2346 24.9892 53.5425C25.4621 53.9239 25.7246 54.4026 25.6265 55.0245C25.5852 55.2865 25.5013 55.5417 25.4367 55.8C25.4367 55.8 25.4391 55.7949 25.4136 55.8086C24.7741 56.4442 24.1601 57.0662 23.5461 57.6882C23.5461 57.6882 23.5494 57.6837 23.5216 57.6952C23.0545 57.9537 22.5974 58.1818 22.4286 58.7146Z" fill="black"></path>
<path d="M17.697 53.7043C18.1834 53.3689 18.6699 53.0336 19.2119 52.6858C20.6677 51.59 21.8043 50.3304 22.0474 48.4816C22.0903 48.156 22.181 47.8345 22.5709 47.9041C23.7116 48.1077 24.7733 48.8276 24.4447 50.3232C24.4118 50.4727 24.4142 50.63 24.4002 50.7837C24.4786 51.3864 23.9314 51.6078 23.6118 52.0323C23.2891 52.3586 23.0167 52.6518 22.741 52.9418C22.2574 53.4508 21.7717 53.9578 21.287 54.4656C20.8154 54.8343 20.3467 55.2069 19.8701 55.569C19.7514 55.6592 19.6069 55.7155 19.4051 55.7963C18.9764 55.9928 18.6167 56.1805 18.2571 56.3681C18.2571 56.3681 18.2612 56.3643 18.2276 56.3676C17.7766 56.555 17.3592 56.7391 16.9419 56.9231C16.709 56.9845 16.4762 57.0458 16.1723 57.1211C15.6282 57.2427 15.1584 57.4171 14.6813 57.4405C14.1158 57.4681 13.5328 57.4178 12.9788 57.3005C12.6226 57.2251 12.5181 56.8681 12.7035 56.5387C12.8859 56.2144 13.1292 55.9245 13.3458 55.6194C13.7361 55.3713 14.1005 55.0582 14.5227 54.8903C15.1545 54.6389 15.8269 54.4896 16.5537 54.2866C16.9825 54.0856 17.3398 53.8949 17.697 53.7043Z" fill="black"></path>
<path d="M19.5816 64.2999C19.2966 64.3544 19.0116 64.4088 18.6495 64.473C17.8992 64.6049 17.226 64.727 16.509 64.8503C15.3318 64.7935 14.1982 64.7388 13.0651 64.6751C12.7743 64.6587 12.4852 64.6138 12.1954 64.5819C12.1522 64.558 12.109 64.5341 12.0296 64.4684C11.484 63.7094 11.6303 63.0833 12.3493 62.9955C13.1114 62.9023 13.8814 62.8744 14.6445 62.7875C15.4532 62.6953 16.2627 62.5937 17.062 62.4437C17.468 62.3675 17.8523 62.1758 18.2464 62.0363C18.4742 61.9788 18.7021 61.9213 19.0026 61.8536C19.4921 61.6556 19.909 61.4678 20.3259 61.28C20.4312 61.2248 20.5365 61.1696 20.7052 61.0984C21.1819 60.8683 21.6325 60.7041 22.001 60.4297C22.7774 59.8516 23.5085 59.2128 24.2626 58.6045C24.8352 58.1427 25.2625 58.2441 25.4356 58.9644C25.5393 59.3961 25.4435 59.8757 25.4374 60.3338C25.4374 60.3338 25.4393 60.329 25.4181 60.3489C25.0171 60.8324 24.6381 61.2966 24.2571 61.7591C24.1609 61.8758 24.0579 61.987 23.9581 62.1007C23.3079 62.5516 22.8204 63.2669 21.8668 63.3493C21.3707 63.5454 20.9469 63.7339 20.5232 63.9224C20.5232 63.9224 20.5271 63.9189 20.4915 63.9197C20.1644 64.047 19.873 64.1735 19.5816 64.2999Z" fill="black"></path>
<path d="M17.5832 70.4378C17.5425 70.4808 17.5147 70.5095 17.4889 70.5384C17.1367 70.933 15.9237 71.1204 14.8992 70.917C14.6198 70.8615 14.3707 70.7368 14.2725 70.6253C14.1066 70.4368 14.0459 70.2346 13.9876 70.0363C13.8463 69.5556 13.7283 69.0739 13.6077 68.5924C13.5231 68.255 13.4591 67.917 13.3689 67.5798C13.2611 67.177 13.1439 66.7744 13.0126 66.3724C12.9586 66.2072 13.0683 66.1419 13.534 66.1385C14.2806 66.133 15.031 66.1524 15.7738 66.1326C16.6304 66.1098 17.4849 66.0651 18.3318 66.0124C18.9319 65.9751 19.0785 66.0151 18.9643 66.2275C18.9261 66.2985 18.9244 66.372 18.9035 66.4443C18.7801 66.8709 18.6565 67.2975 18.5316 67.7241C18.4542 67.9886 18.3765 68.2532 18.2955 68.5176C18.1464 69.0045 18.0031 69.4916 17.8393 69.9779C17.7888 70.1277 17.6794 70.275 17.5832 70.4378Z" fill="black"></path>
<defs>
<clipPath id="clip0_453_4602">
<rect width="14.9989" height="7.4325" fill="white" transform="translate(9.30664 45.9805)"></rect>
</clipPath>
<clipPath id="clip1_453_4602">
<rect width="14.3293" height="23.7037" fill="white" transform="translate(0 47.1172)"></rect>
</clipPath>
</defs>
</svg>